<svg width="44" height="44" viewBox="0 0 44 44" fill="none" xmlns="http://www.w3.org/2000/svg">
<path fill-rule="evenodd" clip-rule="evenodd" d="M12.252 2.05C3.80699 6.339 -0.430006 13.906 0.186994 23.597C0.908994 34.928 8.86999 43.001 20.125 43.815C27.966 44.383 33.899 42.105 38.46 36.776C42.941 31.541 44.326 27.188 43.805 19.984C43.298 12.968 39.919 7.298 33.852 3.283C28.122 -0.508001 18.384 -1.065 12.252 2.05ZM29.768 3.548C46.146 10.391 46.146 33.609 29.768 40.452C22.755 43.382 13.689 41.811 8.13199 36.702C0.537993 29.721 0.134994 15.923 7.29799 8.132C12.456 2.521 22.437 0.483999 29.768 3.548ZM11.954 13.086C9.06699 18.48 13.885 28.801 20.6 31.606C24.919 33.411 30.432 33.389 31.95 31.56C32.607 30.769 32.999 28.872 32.822 27.346C32.559 25.078 31.861 24.437 29 23.836C26.443 23.299 25.201 23.491 24.39 24.55C22.886 26.513 21.648 26.374 19.5 24C17.845 22.171 17.826 21.85 19.271 20.25C20.428 18.97 20.661 17.56 20.141 15C19.529 11.99 18.989 11.457 16.281 11.192C13.873 10.956 12.856 11.401 11.954 13.086ZM18.24 15.473C18.569 17.197 18.104 18.351 16.706 19.279C14.782 20.557 14.77 20.719 16.419 23.236C17.365 24.68 19.308 26.627 20.736 27.563C23.133 29.133 23.425 29.139 24.527 27.632C25.183 26.735 26.94 26 28.43 26C30.667 26 31.083 26.392 30.82 28.25C30.567 30.028 29.767 30.557 27 30.772C20.399 31.286 13.012 24.238 13.004 17.417C12.999 13.898 13.619 13 16.05 13C17.082 13 17.955 13.986 18.24 15.473Z" fill="black"/>
</svg>
